<svg xmlns:xlink="http://www.w3.org/1999/xlink" xmlns="http://www.w3.org/2000/svg" width="50" height="50" viewBox="0 0 200 200">
  <defs>
    <style>
       .cls-1 {
        fill-rule: #fff;
      }
    </style>
  </defs>
  <path id="MENU" d="M58,50h84v8H58V50Zm0,28h84v8H58V78Zm0,28h84v8H58v-8Zm20.4,43.326V129.594h-4.68l-5.187,8.344-5.187-8.344h-4.68v19.732h4.257v-12.8l5.5,8.344h0.113l5.553-8.428v12.882H78.4Zm19.774,0v-3.862H87.463V141.32h9.3v-3.862h-9.3v-4H98.034v-3.862H83.15v19.732H98.175Zm21.406,0V129.594H115.3v12.149l-9.246-12.149h-4v19.732h4.285V136.782l9.556,12.544h3.693Zm21.633-8.6V129.594h-4.341v11.3c0,3.129-1.607,4.735-4.257,4.735s-4.256-1.663-4.256-4.876V129.594h-4.341v11.275c0,5.807,3.241,8.767,8.541,8.767S141.214,146.705,141.214,140.728Z" fill="#ffffff"></path>
</svg>